# xmcd
#
# Track frame offsets:
#	150
#	21878
#	37312
#	57051
#	77561
#	100323
#	116603
#	131441
#	154642
#	176789
#	194065
#
# Disc length: 2927 seconds
# Revision: 3
# Processed by: cddbd v1.5.2PL0 Copyright (c) Steve Scherf et al.
# Submitted via: dBpowerAMP V12.0
#
DISCID=930b6d0b
DTITLE=Various Artist - The Definition of...
DYEAR=2016
DGENRE=R&B
TTITLE0=Fantasia,AKAFantasiaMoniqueBarrino,HighPoint,NC - Crazy
TTITLE1=Fantasia,AKAFantasiaMoniqueBarrino,HighPoint,NC - No Time for It
TTITLE2=Fantasia,AKAFantasiaMoniqueBarrino,HighPoint,NC - So Blue
TTITLE3=Fantasia,AKAFantasiaMoniqueBarrino,HighPoint,NC - When I Met You
TTITLE4=Fantasia,AKAFantasiaMoniqueBarrino,HighPoint,NC - Sleeping With the One I Love
TTITLE5=Fantasia,AKAFantasiaMoniqueBarrino,HighPoint,NC,featuringStacy Barthe - Stay Up
TTITLE6=Fantasia,AKAFantasiaMoniqueBarrino,HighPoint,NC - Ugly
TTITLE7=Fantasia,AKAFantasiaMoniqueBarrino,HighPoint,NC - Wait for You
TTITLE8=Fantasia,AKAFantasiaMoniqueBarrino,HighPoint,NC,featuringAloe Blacc - Roller Coasters
TTITLE9=Fantasia,AKAFantasiaMoniqueBarrino,HighPoint,NC - Lonely Legend
TTITLE10=Fantasia,AKAFantasiaMoniqueBarrino,HighPoint,NC,featuringTye Tribbett - I Made It
EXTD=
EXTT0=
EXTT1=
EXTT2=
EXTT3=
EXTT4=
EXTT5=
EXTT6=
EXTT7=
EXTT8=
EXTT9=
EXTT10=
PLAYORDER=
